<svg xmlns="http://www.w3.org/2000/svg" version="1.1" viewBox="9 9 170.66 183.33"><g stroke-linecap="round"><g transform="translate(48.6666259765625 167.6666259765625) rotate(272.6425465329848 21.333343505859375 -23)"><path d="M0 0 C0.89 -6, -1.78 -28.33, 5.33 -36 C12.44 -43.67, 36.44 -44.33, 42.67 -46 M0 0 C0.89 -6, -1.78 -28.33, 5.33 -36 C12.44 -43.67, 36.44 -44.33, 42.67 -46" stroke="#3bc9db" stroke-width="4" fill="none"/></g></g><g stroke-linecap="round"><g transform="translate(48.666656494140625 82.99993896484375) rotate(0 21.333343505859375 -23)"><path d="M0 0 C0.89 -6, -1.78 -28.33, 5.33 -36 C12.44 -43.67, 36.44 -44.33, 42.67 -46 M0 0 C0.89 -6, -1.78 -28.33, 5.33 -36 C12.44 -43.67, 36.44 -44.33, 42.67 -46" stroke="#1971c2" stroke-width="4" fill="none"/></g></g><g stroke-linecap="round" transform="translate(91.99996948242188 10) rotate(0 42.666656494140625 28)"><path d="M14 0 C33.3 0, 52.6 0, 71.33 0 C80.67 0, 85.33 4.67, 85.33 14 C85.33 22.59, 85.33 31.17, 85.33 42 C85.33 51.33, 80.67 56, 71.33 56 C59.25 56, 47.17 56, 14 56 C4.67 56, 0 51.33, 0 42 C0 35.02, 0 28.04, 0 14 C0 4.67, 4.67 0, 14 0" stroke="none" stroke-width="0" fill="#6e6efd"/></g><g stroke-linecap="round" transform="translate(10 74) rotate(0 42.666656494140625 28)"><path d="M14 0 C26.53 0, 39.07 0, 71.33 0 C80.67 0, 85.33 4.67, 85.33 14 C85.33 22.12, 85.33 30.23, 85.33 42 C85.33 51.33, 80.67 56, 71.33 56 C54.51 56, 37.68 56, 14 56 C4.67 56, 0 51.33, 0 42 C0 30.85, 0 19.69, 0 14 C0 4.67, 4.67 0, 14 0" stroke="none" stroke-width="0" fill="#64b5f6"/></g><g stroke-linecap="round" transform="translate(93.33343505859375 135.33328247070312) rotate(0 42.666656494140625 28)"><path d="M14 0 C36.93 0, 59.87 0, 71.33 0 C80.67 0, 85.33 4.67, 85.33 14 C85.33 24.52, 85.33 35.05, 85.33 42 C85.33 51.33, 80.67 56, 71.33 56 C57.62 56, 43.91 56, 14 56 C4.67 56, 0 51.33, 0 42 C0 31.15, 0 20.29, 0 14 C0 4.67, 4.67 0, 14 0" stroke="none" stroke-width="0" fill="#99e9f2"/></g></svg>