<svg viewBox="0 0 24 24" fill="none" xmlns="http://www.w3.org/2000/svg">
  <!-- Body -->
  <path d="M12 2C7.2 2 3.6 5.6 3.6 10.4c0 3.2 2.4 6.4 5.2 7.6v2h2v-2c.4.1.8.1 1.2 0v2h2v-2c2.8-1.2 5.2-4.4 5.2-7.6C19.2 5.6 16.8 2 12 2z" fill="#e74c3c"/>
  <!-- Left Claw -->
  <path d="M4.4 8.8c-2.4-.8-3.6.8-3.2 2.4.4 1.6 2 1.6 2.8.4.6-1 .8-2 .4-2.8z" fill="#e74c3c"/>
  <!-- Right Claw -->
  <path d="M19.6 8.8c2.4-.8 3.6.8 3.2 2.4-.4 1.6-2 1.6-2.8.4-.6-1-.8-2-.4-2.8z" fill="#e74c3c"/>
  <!-- Antennae -->
  <path d="M9.2 3.2Q7.6 1.6 6.8 2" stroke="#e74c3c" stroke-width=".6" stroke-linecap="round" fill="none"/>
  <path d="M14.8 3.2Q16.4 1.6 17.2 2" stroke="#e74c3c" stroke-width=".6" stroke-linecap="round" fill="none"/>
  <!-- Eyes -->
  <circle cx="9.2" cy="7" r="1.2" fill="#fff"/>
  <circle cx="14.8" cy="7" r="1.2" fill="#fff"/>
  <circle cx="9.4" cy="6.8" r=".5" fill="#1a1a2e"/>
  <circle cx="15" cy="6.8" r=".5" fill="#1a1a2e"/>
</svg>
